<svg xmlns="http://www.w3.org/2000/svg" x="0px" y="0px" viewBox="0 0 1920.1 171" preserveAspectRatio="none">
<rect x="0" y="0" width="1920.5" height="0"/>
<path class="st0" style="fill:#FFFFFF;" d="M1920.5,171V61.3v-4V4h0l-0.3,39c-114.1-20.2-257.5-20.6-391.4-10.3c-155.5,12-303.7,37.2-453.9,58.3
	c-150.2,21.1-308.7,38.6-462.7,34.1c-146.1-4.2-275.9-27.8-405.5-48.9C146.6,66.5,84.4,57.2,20.2,50.5C13.5,49.1,6.7,47.7,0,46.3
	v2.2v1.8L0,171H1920.5z"/>
<path style="fill:#FFFFFF;" d="M1920.5,171V57.3c-191.8-6.7-375,12.2-547.6,34.2c-15.9,2-31.8,4.1-47.7,6.1c-192.5,25-387.1,51.2-601.9,46.7
	C481,139.4,234,95.9,0,46.3L0,171H1920.5z"/>
<path class="st1" style="fill:#F3F3F3;" d="M723.3,144.4c214.9,4.4,409.4-21.8,601.9-46.7c15.9-2.1,31.8-4.1,47.7-6.1c172.6-22,355.8-41,547.6-34.2V0h0
	l-0.3,39c-114.1-20.2-257.5-20.6-391.4-10.3c-155.5,12-303.7,37.2-453.9,58.3c-150.2,21.1-308.7,38.6-462.7,34.1
	c-146.1-4.2-275.9-27.8-405.5-48.9C140.4,61.5,71.4,51.3,0,44.5v1.8C234,95.9,481,139.4,723.3,144.4z"/>
</svg>
 